<svg width="27" height="27" viewBox="0 0 27 27" fill="none" xmlns="http://www.w3.org/2000/svg">
<path d="M1.6875 1.98047H5.97772L8.85217 16.342C8.95025 16.8358 9.21888 17.2794 9.61105 17.595C10.0032 17.9107 10.4939 18.0784 10.9973 18.0688H21.4225C21.9259 18.0784 22.4166 17.9107 22.8087 17.595C23.2009 17.2794 23.4695 16.8358 23.5676 16.342L25.2837 7.34324H7.05028M11.3405 23.4316C11.3405 24.0239 10.8603 24.5041 10.2679 24.5041C9.67559 24.5041 9.19539 24.0239 9.19539 23.4316C9.19539 22.8392 9.67559 22.359 10.2679 22.359C10.8603 22.359 11.3405 22.8392 11.3405 23.4316ZM23.1386 23.4316C23.1386 24.0239 22.6584 24.5041 22.066 24.5041C21.4737 24.5041 20.9935 24.0239 20.9935 23.4316C20.9935 22.8392 21.4737 22.359 22.066 22.359C22.6584 22.359 23.1386 22.8392 23.1386 23.4316Z" stroke="#34C759" stroke-linecap="round" stroke-linejoin="round"/>
</svg>
